<?xml version="1.0" encoding="utf-8"?>
<!-- Generator: Adobe Illustrator 22.1.0, SVG Export Plug-In . SVG Version: 6.00 Build 0)  -->
<!DOCTYPE svg PUBLIC "-//W3C//DTD SVG 1.1//EN" "http://www.w3.org/Graphics/SVG/1.1/DTD/svg11.dtd">
<svg version="1.1" id="Calque_1" xmlns="http://www.w3.org/2000/svg" xmlns:xlink="http://www.w3.org/1999/xlink" x="0px" y="0px"
	 viewBox="0 0 123.7 79.9" style="enable-background:new 0 0 123.7 79.9;" xml:space="preserve">
<style type="text/css">
	.st0{fill:#E3051B;}
	.st1{fill:#FFFFFF;}
	.st2{fill:#06A3DC;}
</style>
<title>logo_promeo</title>
<g id="Calque_2_1_">
	<g id="SOUS_HOME_02">
		<rect x="0" y="27.7" class="st0" width="142" height="52.2"/>
		<polygon class="st1" points="13,42.9 12,42.9 12,52.8 17.9,52.8 17.9,51.8 13,51.8 		"/>
		<polygon class="st1" points="23.7,42.8 20.2,46.7 20.1,46.8 20.1,52.8 21.1,52.8 21.1,47.1 23.7,44.3 26.3,47.1 26.3,52.8 
			27.3,52.8 27.3,46.8 23.8,42.9 		"/>
		<rect x="22" y="49.1" class="st1" width="3.5" height="0.9"/>
		<path class="st1" d="M39.4,56.3c-0.4-0.3-0.8-0.5-1.3-0.6c-0.7-0.2-1.4-0.2-2.2-0.2h-3.4v9.9h3c0.5,0,0.9,0,1.3,0
			c0.3,0,0.7-0.1,1-0.2c0.3-0.1,0.5-0.2,0.8-0.3c0.2-0.1,0.4-0.2,0.6-0.4c0.5-0.4,0.8-1,1-1.6c0.3-0.8,0.4-1.7,0.4-2.6
			c0-0.8-0.1-1.7-0.3-2.5C40.1,57.2,39.8,56.7,39.4,56.3z M33.5,56.4h2.3c0.3,0,0.6,0,0.9,0s0.5,0,0.8,0.1c0.2,0,0.5,0.1,0.7,0.2
			c0.2,0.1,0.3,0.2,0.5,0.3c0.3,0.4,0.5,0.8,0.6,1.3c0.1,0.7,0.2,1.3,0.2,2c0,0.8-0.1,1.5-0.3,2.2c-0.2,0.9-0.9,1.6-1.8,1.7
			c-0.7,0.1-1.3,0.2-2,0.2h-1.8V56.4z"/>
		<polygon class="st1" points="43.6,60.8 48,60.8 48,59.8 43.6,59.8 43.6,56.4 48.8,56.4 48.8,55.5 42.6,55.5 42.6,65.3 49,65.3 
			49,64.4 43.6,64.4 		"/>
		<polygon class="st1" points="55.2,55.5 54.2,55.5 54.2,65.3 60.4,65.3 60.4,64.4 55.2,64.4 		"/>
		<polygon class="st1" points="61.1,55.5 59.4,59 60.4,59 62.2,55.5 		"/>
		<polygon class="st1" points="76,64.3 75.8,64.3 72.6,55.5 71.5,55.5 75.1,65.3 76.7,65.3 80.5,55.5 79.4,55.5 		"/>
		<polygon class="st1" points="82.5,60.8 86.9,60.8 86.9,59.8 82.5,59.8 82.5,56.4 87.7,56.4 87.7,55.5 81.5,55.5 81.5,65.3 
			88,65.3 88,64.4 82.5,64.4 		"/>
		<polygon class="st1" points="97.3,64.3 97.2,64.3 91.7,55.5 90.2,55.5 90.2,65.3 91.2,65.3 91.2,56.4 91.2,56.4 96.7,65.3 
			98.2,65.3 98.2,55.5 97.3,55.5 		"/>
		<rect x="100.9" y="55.5" class="st1" width="1" height="9.9"/>
		<polygon class="st1" points="66.9,55.4 63.4,59.3 63.4,59.3 63.4,65.3 64.4,65.3 64.4,59.7 66.9,56.9 69.5,59.7 69.5,65.3 
			70.5,65.3 70.5,59.3 67,55.5 		"/>
		<rect x="65.2" y="61.6" class="st1" width="3.5" height="0.9"/>
		<polygon class="st1" points="33.5,48.5 37.7,48.5 37.7,47.5 33.5,47.5 33.5,43.8 38.6,43.8 38.6,42.9 32.5,42.9 32.5,52.8 
			33.5,52.8 		"/>
		<polygon class="st1" points="41,47.1 43.5,44.3 46.1,47.1 46.1,52.8 47.1,52.8 47.1,46.8 43.6,42.9 43.5,42.8 40,46.7 40,46.8 
			40,52.8 41,52.8 		"/>
		<rect x="41.8" y="49.1" class="st1" width="3.5" height="0.9"/>
		<path class="st1" d="M55.1,47.5c0.4-0.5,0.7-1.2,0.6-1.8v-0.3c0.2-1.2-0.7-2.3-1.9-2.4c-0.1,0-0.2,0-0.3,0h-4.3v9.9h4.7
			c1.5,0,2.2-1.2,2.2-2.6v-0.3C56.4,48.9,55.9,48,55.1,47.5z M50.4,43.8h3.2c1.1,0,1.2,1.1,1.2,1.5v0.3c0,0.5-0.1,1.5-1.2,1.5h-3.2
			V43.8z M55.4,50.1c0.1,0.8-0.5,1.6-1.3,1.7c-0.1,0-0.1,0-0.2,0h-3.5V48h3.6c0.8,0,1.5,0.7,1.5,1.6c0,0.1,0,0.1,0,0.2L55.4,50.1z"
			/>
		<path class="st1" d="M64.7,52.8h1.2c0,0-1.6-3-2.3-4.3c1.3-0.2,2.1-1.4,2-2.6v-0.3c0.2-1.3-0.8-2.5-2.1-2.7c-0.1,0-0.2,0-0.3,0
			h-4.4v9.9h1v-4.2h2.7C62.7,49,64.7,52.8,64.7,52.8z M64.6,45.5v0.3c0,0.5-0.1,1.8-1.5,1.8h-3.3v-3.8h3.3c0.8,0,1.5,0.7,1.5,1.5
			C64.6,45.4,64.6,45.5,64.6,45.5z"/>
		<path class="st1" d="M110.5,65.2h1.2c0,0-1.6-3-2.3-4.3c1.3-0.2,2.1-1.4,2-2.6V58c0.2-1.3-0.8-2.5-2.1-2.7c-0.1,0-0.2,0-0.3,0
			h-4.3v9.9h1V61h2.7C108.6,61.5,110.5,65.2,110.5,65.2z M110.4,58v0.3c0.1,0.8-0.4,1.6-1.2,1.8c-0.1,0-0.1,0-0.2,0h-3.3v-3.8h3.3
			c0.8,0,1.5,0.8,1.4,1.6C110.4,57.9,110.4,58,110.4,58z"/>
		<rect x="68.2" y="42.9" class="st1" width="1" height="9.9"/>
		<path class="st1" d="M79.7,49.5v-3.7c0.1-1-0.4-2-1.2-2.7c-0.8-0.5-1.7-0.8-2.6-0.8h-0.5c-0.9,0-1.9,0.2-2.6,0.8
			c-0.8,0.6-1.3,1.6-1.2,2.7v3.7c0,1,0.4,2,1.2,2.7c0.8,0.5,1.7,0.8,2.6,0.8h0.5h0.4l1.6,2H79l-1.7-2.2c0.4-0.1,0.8-0.3,1.2-0.6
			C79.3,51.6,79.8,50.6,79.7,49.5z M75.9,52h-0.5c-2.6,0-2.9-1.7-2.9-2.5v-3.7c0-0.8,0.3-2.5,2.9-2.5h0.5c2.6,0,2.9,1.7,2.9,2.5v3.7
			C78.8,50.3,78.5,52,75.9,52z"/>
		<path class="st1" d="M86.1,53h-0.5c-1.7,0.2-3.3-1-3.5-2.7c0-0.2,0-0.5,0-0.7v-6.6h1v6.6c-0.2,1.2,0.7,2.3,1.9,2.5
			c0.2,0,0.4,0,0.6,0h0.5c1.2,0.2,2.3-0.7,2.5-1.9c0-0.2,0-0.4,0-0.6v-6.6h1v6.6c0.2,1.7-1.1,3.3-2.8,3.5C86.5,53,86.3,53,86.1,53z"
			/>
		<polygon class="st1" points="98.2,51.8 92.8,51.8 92.8,48.2 97.2,48.2 97.2,47.3 92.8,47.3 92.8,43.8 98,43.8 98,42.9 91.8,42.9 
			91.8,52.8 98.2,52.8 		"/>
		<rect class="st2" width="142" height="27.7"/>
		<path class="st1" d="M25.6,6.9h6.8C34,6.8,35.7,7.3,37,8.5c0.9,0.9,1.3,2.1,1.3,3.3l0,0c0.1,2-1.1,3.7-3,4.4l3.4,5h-4.6l-2.9-4.3
			h-1.7v4.3h-4L25.6,6.9z M32.2,13.8c1.3,0,2.1-0.7,2.1-1.7l0,0c0-1.1-0.8-1.7-2.2-1.7h-2.6v3.4L32.2,13.8z"/>
		<path class="st1" d="M51.4,21.5c-4.1,0.1-7.4-3-7.6-7.1c0-0.1,0-0.2,0-0.3l0,0c0.3-4.2,4-7.4,8.2-7c3.7,0.3,6.7,3.2,7,6.9l0,0
			c0,4.1-3.2,7.4-7.3,7.5C51.6,21.5,51.5,21.5,51.4,21.5z M55.8,14.1c0.1-2.4-1.8-4.4-4.2-4.5c0,0-0.1,0-0.1,0
			c-2.4,0-4.3,1.9-4.3,4.3c0,0.1,0,0.1,0,0.2l0,0c-0.1,2.4,1.8,4.4,4.2,4.5c0,0,0.1,0,0.1,0c2.4,0,4.3-1.9,4.3-4.3
			C55.8,14.2,55.8,14.1,55.8,14.1L55.8,14.1z"/>
		<path class="st1" d="M71.1,17.7H71L66.6,11v10.2h-2.5V6.9h2.7l4.4,6.8l4.4-6.8h2.7v14.3h-2.5V11L71.1,17.7z"/>
		<path class="st1" d="M95.2,8.4h-8.7v4.9h7.8v1.5h-7.8v5h8.8v1.5H84.9V6.9h10.4V8.4z"/>
		<path class="st1" d="M108.4,21.5c-3.9,0-7.2-3.2-7.2-7.1c0-0.1,0-0.2,0-0.3l0,0c-0.1-4,3-7.3,7-7.4c0.1,0,0.1,0,0.2,0
			c3.9,0,7.2,3.2,7.2,7.1c0,0.1,0,0.1,0,0.2l0,0c0.2,4-2.9,7.3-6.9,7.5C108.6,21.5,108.5,21.5,108.4,21.5z M114.5,14.1
			c0.1-3.4-2.5-6.3-5.9-6.4c-0.1,0-0.1,0-0.2,0c-3.4,0-6.1,2.8-6.1,6.2c0,0.1,0,0.1,0,0.2l0,0c-0.1,3.4,2.5,6.3,5.9,6.4
			c0.1,0,0.1,0,0.2,0c3.4,0,6.1-2.8,6.1-6.2C114.5,14.2,114.5,14.1,114.5,14.1L114.5,14.1z"/>
		<path class="st1" d="M14.3,6.9H8v4.3h6.3c0.6,0,1.1,0.5,1.1,1.1s-0.5,1.1-1.1,1.1l0,0h-2v-1.4H8.1v9.2h4.1v-3.4h2
			c3,0,5.5-2.4,5.5-5.4S17.2,6.9,14.3,6.9L14.3,6.9z"/>
	</g>
</g>
</svg>
